<svg xmlns="http://www.w3.org/2000/svg" viewBox="0 0 700 680" font-family="'Geist', 'Inter', system-ui, -apple-system, sans-serif">
  <defs>
    <linearGradient id="bgGrad" x1="0" y1="0" x2="0.7" y2="1">
      <stop offset="0%" stop-color="#0a0e1a"/>
      <stop offset="100%" stop-color="#111827"/>
    </linearGradient>
    <pattern id="grid" width="40" height="40" patternUnits="userSpaceOnUse">
      <path d="M 40 0 L 0 0 0 40" fill="none" stroke="#1e293b" stroke-width="0.5" opacity="0.3"/>
    </pattern>
    <linearGradient id="toolsGrad" x1="0" y1="0" x2="0" y2="1">
      <stop offset="0%" stop-color="#06b6d4"/>
      <stop offset="100%" stop-color="#0891b2"/>
    </linearGradient>
    <linearGradient id="operatorGrad" x1="0" y1="0" x2="0" y2="1">
      <stop offset="0%" stop-color="#3b82f6"/>
      <stop offset="100%" stop-color="#2563eb"/>
    </linearGradient>
    <linearGradient id="runtimeGrad" x1="0" y1="0" x2="0" y2="1">
      <stop offset="0%" stop-color="#ec4899"/>
      <stop offset="100%" stop-color="#db2777"/>
    </linearGradient>
    <filter id="glow-tools" x="-20%" y="-20%" width="140%" height="140%">
      <feGaussianBlur stdDeviation="4" result="blur"/>
      <feFlood flood-color="#06b6d4" flood-opacity="0.3"/>
      <feComposite in2="blur" operator="in"/>
      <feMerge><feMergeNode/><feMergeNode in="SourceGraphic"/></feMerge>
    </filter>
    <filter id="glow-operator" x="-20%" y="-20%" width="140%" height="140%">
      <feGaussianBlur stdDeviation="4" result="blur"/>
      <feFlood flood-color="#3b82f6" flood-opacity="0.3"/>
      <feComposite in2="blur" operator="in"/>
      <feMerge><feMergeNode/><feMergeNode in="SourceGraphic"/></feMerge>
    </filter>
    <filter id="glow-runtime" x="-20%" y="-20%" width="140%" height="140%">
      <feGaussianBlur stdDeviation="4" result="blur"/>
      <feFlood flood-color="#ec4899" flood-opacity="0.3"/>
      <feComposite in2="blur" operator="in"/>
      <feMerge><feMergeNode/><feMergeNode in="SourceGraphic"/></feMerge>
    </filter>
    <marker id="arrow-cyan" markerWidth="8" markerHeight="6" refX="8" refY="3" orient="auto" markerUnits="strokeWidth">
      <path d="M0,0 L8,3 L0,6 Z" fill="#22d3ee"/>
    </marker>
    <marker id="arrow-blue" markerWidth="8" markerHeight="6" refX="8" refY="3" orient="auto" markerUnits="strokeWidth">
      <path d="M0,0 L8,3 L0,6 Z" fill="#60a5fa"/>
    </marker>
    <marker id="arrow-gray" markerWidth="8" markerHeight="6" refX="8" refY="3" orient="auto" markerUnits="strokeWidth">
      <path d="M0,0 L8,3 L0,6 Z" fill="#94a3b8"/>
    </marker>
  </defs>

  <!-- Background -->
  <rect width="700" height="680" fill="url(#bgGrad)" rx="12"/>
  <rect width="700" height="680" fill="url(#grid)"/>

  <!-- ═══════════════════ CONNECTIONS ═══════════════════ -->
  <!-- Step 1→2 -->
  <path d="M 350 95 L 350 145" stroke="#60a5fa" stroke-width="2.5" fill="none" marker-end="url(#arrow-blue)"/>
  <!-- Step 2→3 -->
  <path d="M 350 245 L 350 295" stroke="#94a3b8" stroke-width="2.5" fill="none" marker-end="url(#arrow-gray)"/>
  <!-- Step 3→4 -->
  <path d="M 350 395 L 350 445" stroke="#22d3ee" stroke-width="2.5" fill="none" marker-end="url(#arrow-cyan)"/>
  <!-- Step 4→5 -->
  <path d="M 350 540 L 350 580" stroke="#22d3ee" stroke-width="2.5" fill="none" marker-end="url(#arrow-cyan)"/>

  <!-- ═══════════════════ STEP 1: AgentTool CR ═══════════════════ -->
  <g filter="url(#glow-tools)">
    <rect x="175" y="40" rx="8" ry="8" width="350" height="55" fill="#1e293b" stroke="#06b6d4" stroke-width="1.5"/>
  </g>
  <rect x="175" y="40" rx="8" ry="8" width="350" height="4" fill="url(#toolsGrad)"/>
  <text x="350" y="68" text-anchor="middle" fill="#67e8f9" font-size="14" font-weight="700">AgentTool CR</text>
  <text x="350" y="84" text-anchor="middle" fill="#475569" font-size="10">source: oci  |  ref: ghcr.io/samyn92/agent-tools/kubectl</text>

  <!-- Step label -->
  <rect x="60" y="50" rx="10" ry="10" width="20" height="20" fill="#164e63" stroke="#06b6d4" stroke-width="0.75"/>
  <text x="70" y="65" text-anchor="middle" fill="#67e8f9" font-size="10" font-weight="700">1</text>

  <!-- ═══════════════════ STEP 2: Operator adds init container ═══════════════════ -->
  <g filter="url(#glow-operator)">
    <rect x="120" y="150" rx="8" ry="8" width="460" height="90" fill="#1e293b" stroke="#3b82f6" stroke-width="1.5"/>
  </g>
  <rect x="120" y="150" rx="8" ry="8" width="460" height="4" fill="url(#operatorGrad)"/>
  <text x="350" y="180" text-anchor="middle" fill="#93c5fd" font-size="14" font-weight="700">Operator reconciles Agent pod spec</text>
  <text x="350" y="200" text-anchor="middle" fill="#64748b" font-size="10">Adds init container to agent pod:</text>
  <text x="350" y="218" text-anchor="middle" fill="#475569" font-size="10">crane export &lt;oci-ref&gt; | tar -xz -C /tools/&lt;name&gt;/</text>
  <text x="350" y="234" text-anchor="middle" fill="#475569" font-size="9">image: gcr.io/go-containerregistry/crane</text>

  <rect x="60" y="180" rx="10" ry="10" width="20" height="20" fill="#172554" stroke="#3b82f6" stroke-width="0.75"/>
  <text x="70" y="195" text-anchor="middle" fill="#93c5fd" font-size="10" font-weight="700">2</text>

  <!-- ═══════════════════ STEP 3: Runtime reads manifest ═══════════════════ -->
  <g filter="url(#glow-runtime)">
    <rect x="120" y="300" rx="8" ry="8" width="460" height="90" fill="#1e293b" stroke="#ec4899" stroke-width="1.5"/>
  </g>
  <rect x="120" y="300" rx="8" ry="8" width="460" height="4" fill="url(#runtimeGrad)"/>
  <text x="350" y="330" text-anchor="middle" fill="#f9a8d4" font-size="14" font-weight="700">Agent pod starts</text>
  <text x="350" y="350" text-anchor="middle" fill="#64748b" font-size="10">Fantasy Runtime reads /tools/&lt;name&gt;/manifest.json</text>
  <!-- Manifest content -->
  <rect x="200" y="362" rx="3" ry="3" width="300" height="20" fill="#111827" stroke="#334155" stroke-width="0.5"/>
  <text x="350" y="377" text-anchor="middle" fill="#94a3b8" font-size="9">{ "command": "mcp-kubectl", "env": [...], "args": [...] }</text>

  <rect x="60" y="330" rx="10" ry="10" width="20" height="20" fill="#2d1040" stroke="#ec4899" stroke-width="0.75"/>
  <text x="70" y="345" text-anchor="middle" fill="#f9a8d4" font-size="10" font-weight="700">3</text>

  <!-- ═══════════════════ STEP 4: Runtime spawns binary ═══════════════════ -->
  <rect x="120" y="450" rx="8" ry="8" width="460" height="85" fill="#1e293b" stroke="#06b6d4" stroke-width="1.5"/>
  <rect x="120" y="450" rx="8" ry="8" width="460" height="4" fill="url(#toolsGrad)"/>
  <text x="350" y="480" text-anchor="middle" fill="#67e8f9" font-size="14" font-weight="700">Runtime spawns MCP server</text>
  <text x="350" y="500" text-anchor="middle" fill="#64748b" font-size="10">/tools/&lt;name&gt;/&lt;command&gt; (stdio transport)</text>
  <text x="350" y="520" text-anchor="middle" fill="#475569" font-size="9">MCP client connects over stdin / stdout</text>

  <rect x="60" y="480" rx="10" ry="10" width="20" height="20" fill="#164e63" stroke="#06b6d4" stroke-width="0.75"/>
  <text x="70" y="495" text-anchor="middle" fill="#67e8f9" font-size="10" font-weight="700">4</text>

  <!-- ═══════════════════ STEP 5: Data flow ═══════════════════ -->
  <rect x="100" y="585" rx="8" ry="8" width="500" height="50" fill="#0f172a" stroke="#1e293b" stroke-width="1"/>
  <text x="350" y="608" text-anchor="middle" fill="#94a3b8" font-size="11" font-weight="500">Runtime</text>
  <text x="350" y="608" text-anchor="middle" fill="#94a3b8" font-size="11" font-weight="500" opacity="0"/>
  <!-- Flow arrows inside -->
  <text x="190" y="614" text-anchor="middle" fill="#f9a8d4" font-size="10" font-weight="600">Runtime</text>
  <text x="264" y="614" text-anchor="middle" fill="#475569" font-size="10">→ stdio →</text>
  <text x="350" y="614" text-anchor="middle" fill="#67e8f9" font-size="10" font-weight="600">MCP Server</text>
  <text x="436" y="614" text-anchor="middle" fill="#475569" font-size="10">→ stdio →</text>
  <text x="516" y="614" text-anchor="middle" fill="#f9a8d4" font-size="10" font-weight="600">Runtime</text>

  <rect x="60" y="598" rx="10" ry="10" width="20" height="20" fill="#164e63" stroke="#06b6d4" stroke-width="0.75"/>
  <text x="70" y="613" text-anchor="middle" fill="#67e8f9" font-size="10" font-weight="700">5</text>

  <!-- Watermark -->
  <text x="350" y="668" text-anchor="middle" fill="#334155" font-size="11" letter-spacing="2" font-weight="500">OCI TOOL LOADING PIPELINE</text>
</svg>
